<?xml version="1.0" encoding="UTF-8"?>
<svg width="1271px" height="377px" viewBox="0 0 1271 377" version="1.1" xmlns="http://www.w3.org/2000/svg" xmlns:xlink="http://www.w3.org/1999/xlink">
    <!-- Generator: Sketch 62 (91390) - https://sketch.com -->
    <title>Download_Android_APK 2</title>
    <desc>Created with Sketch.</desc>
    <g id="Page-1" stroke="none" stroke-width="1" fill="none" fill-rule="evenodd">
        <g id="Download_Android_APK" fill-rule="nonzero">
            <path d="M1222.96296,376.2987 L47.037037,376.2987 C34.5235229,376.423347 22.4855077,371.508482 13.6366609,362.659635 C4.78781412,353.810789 -0.127050608,341.772773 -0.00240337016,329.259259 L-0.00240337016,47.037037 C-0.127050608,34.5235229 4.78781412,22.4855077 13.6366609,13.6366609 C22.4855077,4.78781412 34.5235229,-0.127050608 47.037037,-0.00240337016 L1222.96296,-0.00240337016 C1235.47648,-0.127050608 1247.51449,4.78781412 1256.36334,13.6366609 C1265.21219,22.4855077 1270.12705,34.5235229 1270.0024,47.037037 L1270.0024,329.259259 C1270.12705,341.772773 1265.21219,353.810789 1256.36334,362.659635 C1247.51449,371.508482 1235.47648,376.423347 1222.96296,376.2987 Z" id="Path" fill="#3DDC84"></path>
            <g id="Group" transform="translate(387.585185, 83.725926)" fill="#FFFFFF">
                <g transform="translate(10.348148, 0.000000)">
                    <path d="M0,58.3259259 L0,3.76296296 L15.9925926,3.76296296 C20.6747005,3.55518832 25.297356,4.87594703 29.162963,7.52592593 C32.9027383,9.6952069 35.8649067,12.9865051 37.6296296,16.9333333 C39.6495092,21.355318 40.6155927,26.1857357 40.4518519,31.0444444 L40.4518519,33.8666667 C40.5175363,38.7168341 39.5557104,43.5259634 37.6296296,47.9777778 C35.7814634,52.1802668 32.4247112,55.5370189 28.2222222,57.3851852 C24.1022364,59.3104688 19.5989795,60.2754524 15.0518519,60.2074074 C15.0518519,58.3259259 0,58.3259259 0,58.3259259 Z M9.40740741,11.2888889 L9.40740741,50.8 L15.9925926,50.8 C20.2393958,50.8363967 24.3169727,49.1374063 27.2814815,46.0962963 C30.1848079,42.3544461 31.5327064,37.6368014 31.0444444,32.9259259 L31.0444444,30.1037037 C31.3808874,25.1137056 30.0578979,20.1524949 27.2814815,15.9925926 C24.5752999,12.5909863 20.3134705,10.815224 15.9925926,11.2888889 L9.40740741,11.2888889 Z" id="Shape"></path>
                    <path d="M47.9777778,37.6296296 C48.0614447,34.103235 48.6962806,30.6116377 49.8592593,27.2814815 C51.5329931,24.3605898 53.7715784,21.8022065 56.4444444,19.7555556 C59.5503999,17.8386703 63.1435046,16.8587327 66.7925926,16.9333333 C71.8329584,16.5991687 76.7288299,18.6973994 79.962963,22.5777778 C83.7109204,26.3011565 85.7535982,31.4078509 85.6074074,36.6888889 L85.6074074,38.5703704 C85.5237405,42.096765 84.8889046,45.5883623 83.7259259,48.9185185 C82.3491814,52.0396715 80.0515192,54.6655711 77.1407407,56.4444444 C69.2729384,61.0746838 59.2880608,59.9225826 52.6814815,53.6222222 C48.9185185,49.8592593 47.9777778,45.1555556 47.9777778,37.6296296 Z M56.4444444,38.5703704 C56.2223934,41.9436283 57.2244454,45.2838015 59.2666667,47.9777778 C61.0793939,50.3029534 63.8448158,51.6856643 66.7925926,51.7407407 C69.8284659,52.1068916 72.7899152,50.6261669 74.3185185,47.9777778 C76.3579419,44.9263486 77.3485953,41.2939528 77.1407407,37.6296296 C77.2153414,33.9805416 76.2354037,30.387437 74.3185185,27.2814815 C72.5418884,24.9126413 69.7536428,23.5185185 66.7925926,23.5185185 C63.8315424,23.5185185 61.0432968,24.9126413 59.2666667,27.2814815 C57.2312874,30.6829794 56.2492265,34.6112231 56.4444444,38.5703704 L56.4444444,38.5703704 Z" id="Shape"></path>
                    <polygon id="Path" points="129.822222 46.0962963 136.407407 17.8740741 145.814815 17.8740741 134.525926 59.2666667 127 59.2666667 118.533333 31.0444444 110.066667 59.2666667 102.540741 59.2666667 91.2518519 17.8740741 100.659259 17.8740741 107.244444 46.0962963 115.711111 17.8740741 122.296296 17.8740741"></polygon>
                    <path d="M159.925926,17.8740741 L159.925926,22.5777778 C162.897856,18.8903883 167.421412,16.8025935 172.155556,16.9333333 C180.622222,16.9333333 185.325926,21.637037 185.325926,31.9851852 L185.325926,59.2666667 L175.918519,59.2666667 L175.918519,32.9259259 C176.045169,30.8718924 175.370778,28.848718 174.037037,27.2814815 C172.469801,25.947741 170.446626,25.2733495 168.392593,25.4 C164.942593,25.3817189 161.733046,27.1648007 159.925926,30.1037037 L159.925926,59.2666667 L150.518519,59.2666667 L150.518519,17.8740741 L159.925926,17.8740741 Z" id="Path"></path>
                    <polygon id="Path" points="204.140741 58.3259259 194.733333 58.3259259 194.733333 0 204.140741 0"></polygon>
                    <path d="M212.607407,37.6296296 C212.691074,34.103235 213.32591,30.6116377 214.488889,27.2814815 C216.162623,24.3605898 218.401208,21.8022065 221.074074,19.7555556 C224.18003,17.8386703 227.773134,16.8587327 231.422222,16.9333333 C236.462588,16.5991687 241.35846,18.6973994 244.592593,22.5777778 C248.34055,26.3011565 250.383228,31.4078509 250.237037,36.6888889 L250.237037,38.5703704 C250.15337,42.096765 249.518534,45.5883623 248.355556,48.9185185 C246.978811,52.0396715 244.681149,54.6655711 241.77037,56.4444444 C233.902568,61.0746838 223.91769,59.9225826 217.311111,53.6222222 C213.548148,49.8592593 212.607407,45.1555556 212.607407,37.6296296 L212.607407,37.6296296 Z M222.014815,38.5703704 C221.792764,41.9436283 222.794816,45.2838015 224.837037,47.9777778 C226.649764,50.3029534 229.415186,51.6856643 232.362963,51.7407407 C235.35767,51.8918292 238.212936,50.4641962 239.888889,47.9777778 C241.928312,44.9263486 242.918966,41.2939528 242.711111,37.6296296 C242.785712,33.9805416 241.805774,30.387437 239.888889,27.2814815 C238.112259,24.9126413 235.324013,23.5185185 232.362963,23.5185185 C229.401913,23.5185185 226.613667,24.9126413 224.837037,27.2814815 C222.801658,30.6829794 221.819597,34.6112231 222.014815,38.5703704 L222.014815,38.5703704 Z" id="Shape"></path>
                    <path d="M283.162963,58.3259259 C283.162963,57.3851852 282.222222,56.4444444 282.222222,54.562963 C279.516666,57.4181626 275.804248,59.1056256 271.874074,59.2666667 C268.058092,59.4610835 264.325703,58.103851 261.525926,55.5037037 C259.139002,53.3346233 257.773517,50.2622819 257.762963,47.037037 C257.728213,43.0628066 259.449534,39.2759004 262.466667,36.6888889 C266.506521,33.6564416 271.564403,32.307673 276.577778,32.9259259 L282.222222,32.9259259 L282.222222,30.1037037 C282.186743,28.3594124 281.518008,26.6875761 280.340741,25.4 C278.773504,24.0662595 276.75033,23.391868 274.696296,23.5185185 C272.697399,23.7138553 270.768172,24.3569308 269.051852,25.4 C267.889264,26.3063636 267.197909,27.6890745 267.17037,29.162963 L257.762963,29.162963 C257.948757,26.8651288 258.588244,24.6269244 259.644444,22.5777778 C261.425422,20.4988795 263.68549,18.8845455 266.22963,17.8740741 C268.934411,16.8025184 271.792247,16.1674437 274.696296,15.9925926 C278.817192,15.6362913 282.90225,16.9979772 285.985185,19.7555556 C289.002317,22.342567 290.723638,26.1294733 290.688889,30.1037037 L290.688889,48.9185185 C290.64708,51.8488613 291.29141,54.7483468 292.57037,57.3851852 L292.57037,58.3259259 L283.162963,58.3259259 L283.162963,58.3259259 Z M272.814815,51.7407407 C274.696296,51.7407407 276.577778,50.8 278.459259,50.8 C280.340741,50.8 281.281481,48.9185185 282.222222,47.037037 L282.222222,39.5111111 L277.518519,39.5111111 C274.886008,39.4472087 272.285324,40.0973796 269.992593,41.3925926 C268.229748,42.2917735 267.134191,44.1177015 267.17037,46.0962963 C267.197909,47.5701847 267.889264,48.9528956 269.051852,49.8592593 C269.051852,51.7407407 270.933333,51.7407407 272.814815,51.7407407 L272.814815,51.7407407 Z" id="Shape"></path>
                    <path d="M299.155556,37.6296296 C298.978326,32.2250803 300.636242,26.9197501 303.859259,22.5777778 C306.360104,19.1983577 310.25322,17.1289049 314.453381,16.9462892 C318.653543,16.7636735 322.71158,18.487424 325.496296,21.637037 L325.496296,0 L334.903704,0 L334.903704,58.3259259 L326.437037,58.3259259 L325.496296,53.6222222 C322.790115,57.0238285 318.528285,58.7995908 314.207407,58.3259259 C309.738891,58.4435073 305.505563,56.3268431 302.918519,52.6814815 C299.897969,48.2786041 298.562307,42.9359565 299.155556,37.6296296 L299.155556,37.6296296 Z M307.622222,38.5703704 C307.400171,41.9436283 308.402223,45.2838015 310.444444,47.9777778 C312.02355,50.090063 314.408115,51.4526713 317.02963,51.74088 C320.479629,51.7590219 323.689177,49.9759401 325.496296,47.037037 L325.496296,29.162963 C323.993875,25.9238386 320.573562,24.0236648 317.02963,24.4592593 C314.24072,24.1031637 311.553562,25.6386826 310.444444,28.2222222 C308.828205,31.4508654 307.868927,34.9682177 307.622222,38.5703704 L307.622222,38.5703704 Z" id="Shape"></path>
                </g>
                <g transform="translate(0.000000, 102.540741)">
                    <path d="M65.8518519,80.9037037 L26.3407407,80.9037037 L17.8740741,104.422222 L0,104.422222 L37.6296296,4.7037037 L53.6222222,4.7037037 L91.2518519,104.422222 L73.3777778,104.422222 L65.8518519,80.9037037 Z M31.9851852,66.7925926 L61.1481481,66.7925926 L47.037037,25.4 L31.9851852,66.7925926 Z" id="Shape"></path>
                    <path d="M113.82963,30.1037037 L113.82963,38.5703704 C119.005785,31.9009549 127.02575,28.0653196 135.466667,28.2222222 C151.459259,28.2222222 158.985185,36.6888889 158.985185,54.562963 L158.985185,103.481481 L142.051852,103.481481 L142.051852,55.5037037 C142.406217,51.82543 141.40236,48.1446212 139.22963,45.1555556 C136.379312,42.639283 132.682324,41.2949236 128.881481,41.3925926 C122.435064,41.2386981 116.516132,44.9380309 113.82963,50.8 L113.82963,103.481481 L96.8962963,103.481481 L96.8962963,30.1037037 L113.82963,30.1037037 Z" id="Path"></path>
                    <path d="M173.096296,66.7925926 C172.735969,57.1407724 175.364301,47.6130697 180.622222,39.5111111 C185.798378,32.8416956 193.818343,29.0060603 202.259259,29.162963 C209.495211,28.9615032 216.42596,32.0803402 221.074074,37.6296296 L221.074074,1.67109125e-14 L238.007407,1.67109125e-14 L238.007407,105.362963 L222.955556,105.362963 L222.014815,97.837037 C217.007997,103.953755 209.461768,107.42191 201.55932,107.238132 C193.656872,107.054354 186.280023,103.239151 181.562963,96.8962963 C175.695353,87.978827 172.737298,77.4612955 173.096296,66.7925926 L173.096296,66.7925926 Z M190.02963,68.6740741 C189.888365,74.9555398 191.518454,81.1498781 194.733333,86.5481481 C197.314219,90.7983923 201.993923,93.3182332 206.962963,93.1333333 C213.474134,93.5326232 219.520517,89.7536332 222.014815,83.7259259 L222.014815,51.7407407 C219.405714,45.8112732 213.436135,42.0802861 206.962963,42.3333333 C201.944222,41.9232785 197.153604,44.5028425 194.733333,48.9185185 C191.293662,54.9125291 189.660185,61.7731311 190.02963,68.6740741 Z" id="Shape"></path>
                    <path d="M294.451852,45.1555556 C292.57037,45.1555556 289.748148,44.2148148 287.866667,44.2148148 C280.340741,44.2148148 274.696296,47.037037 272.814815,52.6814815 L272.814815,103.481481 L255.881481,103.481481 L255.881481,30.1037037 L271.874074,30.1037037 L271.874074,38.5703704 C275.190649,32.390489 281.808186,28.7140797 288.807407,29.162963 C290.688889,29.162963 293.511111,29.162963 294.451852,30.1037037 L294.451852,45.1555556 Z" id="Path"></path>
                    <path d="M300.096296,66.7925926 C300.092782,59.9296035 301.704099,53.1620702 304.8,47.037037 C307.302747,41.4118717 311.60501,36.7786645 317.02963,33.8666667 C322.523374,30.885889 328.654362,29.2724709 334.903704,29.162963 C344.02771,28.6518023 352.933035,32.076927 359.362963,38.5703704 C365.779903,45.5010453 369.457792,54.528591 369.711111,63.9703704 L369.711111,67.7333333 C369.54934,74.4803905 368.278023,81.1548038 365.948148,87.4888889 C363.445402,93.1140542 359.143138,97.7472614 353.718519,100.659259 C348.224774,103.640037 342.093786,105.253455 335.844444,105.362963 C326.316784,105.543595 317.133294,101.802173 310.444444,95.0148148 C303.30296,87.4046685 299.566894,77.2153972 300.096296,66.7925926 L300.096296,66.7925926 Z M316.088889,67.7333333 C315.813165,74.0299349 317.45322,80.262147 320.792593,85.6074074 C323.901695,89.7528777 328.781125,92.1925926 333.962963,92.1925926 C339.144801,92.1925926 344.024231,89.7528777 347.133333,85.6074074 C350.463005,79.9125329 352.095042,73.3843863 351.837037,66.7925926 C351.978301,60.5111269 350.348212,54.3167886 347.133333,48.9185185 C344.307911,44.4467054 339.235667,41.9105834 333.962963,42.3333333 C328.734085,42.1247722 323.76307,44.6102797 320.792593,48.9185185 C317.337838,54.5616699 315.696176,61.1283151 316.088889,67.7333333 L316.088889,67.7333333 Z" id="Shape"></path>
                    <path d="M382.881481,11.2888889 C383.007836,6.14656841 387.146568,2.00783646 392.288889,1.88148148 C394.825678,1.61105293 397.320392,2.68021629 398.874074,4.7037037 C400.676702,6.41986944 401.697002,8.79997529 401.697002,11.2888889 C401.697002,13.7778025 400.676702,16.1579083 398.874074,17.8740741 C397.198659,19.7343837 394.791468,20.7660369 392.288889,20.6962963 C389.7521,20.9667248 387.257386,19.8975615 385.703704,17.8740741 C384.372714,15.8676146 383.416511,13.6364745 382.881481,11.2888889 L382.881481,11.2888889 Z M400.755556,104.422222 L383.822222,104.422222 L383.822222,30.1037037 L400.755556,30.1037037 L400.755556,104.422222 Z" id="Shape"></path>
                    <path d="M415.807407,66.7925926 C415.44708,57.1407724 418.075412,47.6130697 423.333333,39.5111111 C428.509489,32.8416956 436.529454,29.0060603 444.97037,29.162963 C452.206322,28.9615032 459.137071,32.0803402 463.785185,37.6296296 L463.785185,-5.01327375e-14 L480.718519,-5.01327375e-14 L480.718519,105.362963 L465.666667,105.362963 L464.725926,97.837037 C459.719108,103.953755 452.172879,107.42191 444.270431,107.238132 C436.367983,107.054354 428.991134,103.239151 424.274074,96.8962963 C418.568804,87.9055616 415.625139,77.4391975 415.807407,66.7925926 Z M432.740741,68.6740741 C432.599476,74.9555398 434.229565,81.1498781 437.444444,86.5481481 C440.02533,90.7983923 444.705034,93.3182332 449.674074,93.1333333 C456.185245,93.5326232 462.231629,89.7536332 464.725926,83.7259259 L464.725926,51.7407407 C462.116826,45.8112732 456.147246,42.0802861 449.674074,42.3333333 C444.655333,41.9232785 439.864715,44.5028425 437.444444,48.9185185 C433.681481,53.6222222 432.740741,59.2666667 432.740741,68.6740741 Z" id="Shape"></path>
                    <path d="M590.785185,80.9037037 L552.214815,80.9037037 L543.748148,104.422222 L525.874074,104.422222 L563.503704,4.7037037 L579.496296,4.7037037 L617.125926,104.422222 L599.251852,104.422222 L590.785185,80.9037037 Z M556.918519,66.7925926 L586.081481,66.7925926 L571.97037,25.4 L556.918519,66.7925926 Z" id="Shape"></path>
                    <path d="M646.288889,67.7333333 L646.288889,104.422222 L628.414815,104.422222 L628.414815,4.7037037 L666.985185,4.7037037 C676.510765,4.16806957 685.896419,7.18488686 693.325926,13.1703704 C700.223813,18.9899283 704.04375,27.671603 703.674074,36.6888889 C704.373607,45.293243 700.868838,53.7046891 694.266667,59.2666667 C686.339896,64.9893125 676.759119,67.9626572 666.985185,67.7333333 L646.288889,67.7333333 Z M646.288889,53.6222222 L666.985185,53.6222222 C673.57037,53.6222222 678.274074,52.6814815 681.096296,48.9185185 C684.155742,45.5843582 685.836698,41.2138739 685.8,36.6888889 C685.833708,31.8815404 684.167757,27.2168782 681.096296,23.5185185 C677.484784,20.2977598 672.760654,18.6105705 667.925926,18.8148148 L646.288889,18.8148148 L646.288889,53.6222222 L646.288889,53.6222222 Z" id="Shape"></path>
                    <polygon id="Path" points="746.948148 61.1481481 735.659259 73.3777778 735.659259 104.422222 718.725926 104.422222 718.725926 4.7037037 735.659259 4.7037037 735.659259 51.7407407 745.066667 39.5111111 774.22963 4.7037037 794.925926 4.7037037 758.237037 48.9185185 797.748148 104.422222 777.051852 104.422222"></polygon>
                </g>
            </g>
            <g id="Group" transform="translate(98.777778, 67.277074)" fill="#FFFFFF">
                <path d="M31.0444444,155.673778 C31.0968076,159.6816 29.5278125,163.540597 26.6936122,166.374797 C23.8594118,169.208998 20.0004151,170.777993 15.9925926,170.72563 C7.45095194,170.904102 0.339055614,164.210552 8.35545624e-15,155.673778 L8.35545624e-15,92.6441481 C0.339055614,84.1073737 7.45095194,77.4138242 15.9925926,77.5922963 C20.0004151,77.5399331 23.8594118,79.1089283 26.6936122,81.9431286 C29.5278125,84.7773289 31.0968076,88.6363257 31.0444444,92.6441481 L31.0444444,155.673778 Z M36.6888889,75.7108148 C37.0420474,52.6388561 50.5665467,31.8038168 71.4962963,22.0885926 L61.1481481,3.27377778 C59.2666667,0.451555556 63.0296296,-1.42992593 64.9111111,1.3922963 L75.2592593,20.2071111 C93.8788058,12.2097015 114.965639,12.2097015 133.585185,20.2071111 L143.933333,1.3922963 C144.519573,0.487646228 145.692053,0.168095731 146.656239,0.650188841 C147.620425,1.13228195 148.068272,2.26199591 147.696296,3.27377778 L137.348148,22.0885926 C158.055476,31.9109184 171.243546,52.7920305 171.214862,75.7108148 L36.6888889,75.7108148 Z M36.6888889,81.3552593 L170.274074,81.3552593 L170.274074,178.251556 C170.028055,186.980085 163.010011,193.998129 154.281481,194.244148 L142.992593,194.244148 L142.992593,227.170074 C142.992593,246.92563 112.888889,246.92563 112.888889,227.170074 L112.888889,194.244148 L93.1333333,194.244148 L93.1333333,227.170074 C93.1333333,246.92563 63.0296296,246.92563 63.0296296,227.170074 L63.0296296,194.244148 L52.6814815,194.244148 C43.9529515,193.998129 36.9349081,186.980085 36.6888889,178.251556 L36.6888889,81.3552593 Z M73.3777778,39.9626667 C70.3493421,40.1675154 67.9381821,42.5786755 67.7333333,45.6071111 C67.7333333,48.7244517 70.2604372,51.2515556 73.3777778,51.2515556 C76.4951184,51.2515556 79.0222222,48.7244517 79.0222222,45.6071111 C78.8173735,42.5786755 76.4062134,40.1675154 73.3777778,39.9626667 L73.3777778,39.9626667 Z M134.525926,39.9626667 C131.49749,40.1675154 129.08633,42.5786755 128.881481,45.6071111 C128.881481,48.7244517 131.408585,51.2515556 134.525926,51.2515556 C137.643267,51.2515556 140.17037,48.7244517 140.17037,45.6071111 C139.965522,42.5786755 137.554362,40.1675154 134.525926,39.9626667 L134.525926,39.9626667 Z M206.962963,93.5848889 L206.962963,156.614519 C206.623907,165.151293 199.512011,171.844842 190.97037,171.66637 C186.962548,171.718734 183.103551,170.149738 180.269351,167.315538 C177.43515,164.481338 175.866155,160.622341 175.918519,156.614519 L175.918519,93.5848889 C175.866155,89.5770664 177.43515,85.7180696 180.269351,82.8838693 C183.103551,80.049669 186.962548,78.4806739 190.97037,78.533037 C199.512011,78.3545649 206.623907,85.0481144 206.962963,93.5848889 L206.962963,93.5848889 Z" id="Shape"></path>
            </g>
        </g>
    </g>
</svg>
